<svg xmlns="http://www.w3.org/2000/svg" width="128" height="288" viewBox="0 0 128 288" shape-rendering="crispEdges">
  <!-- grass -->
  <g id="grass_top" transform="translate(0,0)">
    <polygon points="32,1 63,16 32,31 1,16" fill="#7dc643" stroke="#4d7f28"/>
    <polygon points="32,5 55,16 32,27 9,16" fill="#9be053" fill-opacity="0.5"/>
    <path d="M12 16 L24 11 L32 15 L41 11 L53 16" fill="none" stroke="#5f9633" stroke-opacity="0.45"/>
    <path d="M20 20 L32 14 L44 20" fill="none" stroke="#5f9633" stroke-opacity="0.35"/>
  </g>
  <g id="grass_left" transform="translate(64,0)">
    <polygon points="1,1 31,16 31,31 1,16" fill="#8f6038" stroke="#64401f"/>
    <path d="M1 5 L31 20" fill="none" stroke="#66a336" stroke-opacity="0.65"/>
    <path d="M6 10 C10 8,14 12,18 10 S26 12,29 10" fill="none" stroke="#75492a" stroke-opacity="0.35"/>
    <path d="M4 20 C10 17,15 22,20 19 S27 22,30 19" fill="none" stroke="#7d5131" stroke-opacity="0.35"/>
  </g>
  <g id="grass_right" transform="translate(96,0)">
    <polygon points="1,16 31,1 31,16 1,31" fill="#774829" stroke="#533016"/>
    <path d="M1 20 L31 5" fill="none" stroke="#66a336" stroke-opacity="0.65"/>
    <path d="M4 11 C8 9,13 13,17 11 S24 13,28 11" fill="none" stroke="#6c4125" stroke-opacity="0.35"/>
    <path d="M4 23 C9 20,14 24,19 22 S26 24,29 22" fill="none" stroke="#74482a" stroke-opacity="0.35"/>
  </g>

  <!-- dirt -->
  <g id="dirt_top" transform="translate(0,32)">
    <polygon points="32,1 63,16 32,31 1,16" fill="#8e673f" stroke="#5c4329"/>
    <polygon points="32,5 55,16 32,27 9,16" fill="#a47a4d" fill-opacity="0.35"/>
    <path d="M11 16 L20 12 L29 16 L37 12 L46 16 L54 13" fill="none" stroke="#6b4e31" stroke-opacity="0.45"/>
    <path d="M17 21 L26 18 L34 20 L43 17" fill="none" stroke="#735638" stroke-opacity="0.35"/>
  </g>
  <g id="dirt_left" transform="translate(64,32)">
    <polygon points="1,1 31,16 31,31 1,16" fill="#725132" stroke="#4d361f"/>
    <path d="M4 8 L27 20" fill="none" stroke="#8d6a42" stroke-opacity="0.35"/>
    <path d="M4 18 L27 29" fill="none" stroke="#9b774b" stroke-opacity="0.25"/>
  </g>
  <g id="dirt_right" transform="translate(96,32)">
    <polygon points="1,16 31,1 31,16 1,31" fill="#634628" stroke="#422f1b"/>
    <path d="M4 21 L27 9" fill="none" stroke="#855f3b" stroke-opacity="0.35"/>
    <path d="M4 29 L27 17" fill="none" stroke="#936d45" stroke-opacity="0.25"/>
  </g>

  <!-- wood -->
  <g id="wood_top" transform="translate(0,64)">
    <polygon points="32,1 63,16 32,31 1,16" fill="#a76a38" stroke="#6d4324"/>
    <polygon points="32,5 55,16 32,27 9,16" fill="#c17f45" fill-opacity="0.35"/>
    <path d="M10 16 L54 16" fill="none" stroke="#7c4a28" stroke-opacity="0.45"/>
    <path d="M15 10 L49 10" fill="none" stroke="#8a542d" stroke-opacity="0.32"/>
    <path d="M15 22 L49 22" fill="none" stroke="#935d30" stroke-opacity="0.32"/>
  </g>
  <g id="wood_left" transform="translate(64,64)">
    <polygon points="1,1 31,16 31,31 1,16" fill="#90552c" stroke="#643719"/>
    <path d="M7 4 L7 19" fill="none" stroke="#734321" stroke-opacity="0.45"/>
    <path d="M15 8 L15 23" fill="none" stroke="#6e401f" stroke-opacity="0.45"/>
    <path d="M23 12 L23 27" fill="none" stroke="#7d4b28" stroke-opacity="0.45"/>
  </g>
  <g id="wood_right" transform="translate(96,64)">
    <polygon points="1,16 31,1 31,16 1,31" fill="#7a4826" stroke="#542d13"/>
    <path d="M8 12 L8 27" fill="none" stroke="#60361b" stroke-opacity="0.45"/>
    <path d="M16 8 L16 23" fill="none" stroke="#5a3218" stroke-opacity="0.45"/>
    <path d="M24 4 L24 19" fill="none" stroke="#694022" stroke-opacity="0.45"/>
  </g>

  <!-- light stone -->
  <g id="light_stone_top" transform="translate(0,96)">
    <polygon points="32,1 63,16 32,31 1,16" fill="#d8d1c2" stroke="#9a907e"/>
    <polygon points="32,5 55,16 32,27 9,16" fill="#ece5d6" fill-opacity="0.4"/>
    <path d="M13 16 L21 11 L29 15 L22 20 Z" fill="none" stroke="#b4ab98" stroke-opacity="0.45"/>
    <path d="M34 14 L43 10 L52 15 L44 20 Z" fill="none" stroke="#b4ab98" stroke-opacity="0.45"/>
    <path d="M24 23 L32 18 L40 22 L33 27 Z" fill="none" stroke="#b4ab98" stroke-opacity="0.35"/>
  </g>
  <g id="light_stone_left" transform="translate(64,96)">
    <polygon points="1,1 31,16 31,31 1,16" fill="#b9ae9c" stroke="#7e7262"/>
    <path d="M4 8 L14 13 L14 22 L4 17 Z" fill="none" stroke="#d8d1c2" stroke-opacity="0.35"/>
    <path d="M17 14 L28 19 L28 28 L17 23 Z" fill="none" stroke="#d8d1c2" stroke-opacity="0.35"/>
  </g>
  <g id="light_stone_right" transform="translate(96,96)">
    <polygon points="1,16 31,1 31,16 1,31" fill="#a89d8c" stroke="#73675a"/>
    <path d="M4 19 L15 14 L15 23 L4 28 Z" fill="none" stroke="#d8d1c2" stroke-opacity="0.35"/>
    <path d="M16 12 L28 6 L28 15 L16 21 Z" fill="none" stroke="#d8d1c2" stroke-opacity="0.35"/>
  </g>

  <!-- dark stone -->
  <g id="dark_stone_top" transform="translate(0,128)">
    <polygon points="32,1 63,16 32,31 1,16" fill="#5f646b" stroke="#32363c"/>
    <polygon points="32,5 55,16 32,27 9,16" fill="#7a8088" fill-opacity="0.28"/>
    <path d="M12 16 L22 10 L31 15 L23 21 Z" fill="none" stroke="#8b9198" stroke-opacity="0.35"/>
    <path d="M34 14 L45 9 L53 15 L44 20 Z" fill="none" stroke="#8b9198" stroke-opacity="0.35"/>
  </g>
  <g id="dark_stone_left" transform="translate(64,128)">
    <polygon points="1,1 31,16 31,31 1,16" fill="#484c52" stroke="#282b30"/>
    <path d="M4 8 L15 14" fill="none" stroke="#7f858d" stroke-opacity="0.25"/>
    <path d="M8 19 L22 26" fill="none" stroke="#7f858d" stroke-opacity="0.25"/>
  </g>
  <g id="dark_stone_right" transform="translate(96,128)">
    <polygon points="1,16 31,1 31,16 1,31" fill="#3d4147" stroke="#202328"/>
    <path d="M4 20 L17 13" fill="none" stroke="#767d85" stroke-opacity="0.25"/>
    <path d="M8 28 L22 21" fill="none" stroke="#767d85" stroke-opacity="0.25"/>
  </g>

  <!-- foliage -->
  <g id="foliage_top" transform="translate(0,160)">
    <polygon points="32,1 63,16 32,31 1,16" fill="#366b2f" stroke="#1f3e1b"/>
    <polygon points="32,4 57,16 32,28 7,16" fill="#4d8d42" fill-opacity="0.45"/>
    <path d="M12 16 C18 10,25 21,32 13 C39 8,46 22,54 16" fill="none" stroke="#5ea54e" stroke-opacity="0.55"/>
    <path d="M18 22 C23 17,28 25,34 18 C39 14,45 22,48 18" fill="none" stroke="#79bf62" stroke-opacity="0.35"/>
  </g>
  <g id="foliage_left" transform="translate(64,160)">
    <polygon points="1,1 31,16 31,31 1,16" fill="#4b412f" stroke="#2d261b"/>
    <path d="M1 4 L31 19" fill="none" stroke="#315e2b" stroke-opacity="0.55"/>
    <path d="M6 10 C10 8,14 12,18 10 S25 12,29 10" fill="none" stroke="#624c33" stroke-opacity="0.35"/>
    <path d="M4 20 C10 17,15 22,20 19 S27 22,30 19" fill="none" stroke="#6f5639" stroke-opacity="0.35"/>
  </g>
  <g id="foliage_right" transform="translate(96,160)">
    <polygon points="1,16 31,1 31,16 1,31" fill="#403726" stroke="#241f15"/>
    <path d="M1 19 L31 4" fill="none" stroke="#315e2b" stroke-opacity="0.55"/>
    <path d="M4 11 C8 9,13 13,17 11 S24 13,28 11" fill="none" stroke="#5d472f" stroke-opacity="0.35"/>
    <path d="M4 23 C9 20,14 24,19 22 S26 24,29 22" fill="none" stroke="#6a5338" stroke-opacity="0.35"/>
  </g>

  <!-- temple stone -->
  <g id="temple_stone_top" transform="translate(0,192)">
    <polygon points="32,1 63,16 32,31 1,16" fill="#c6b78b" stroke="#7f734f"/>
    <polygon points="32,5 55,16 32,27 9,16" fill="#dfd1a6" fill-opacity="0.35"/>
    <path d="M14 16 L22 12 L32 15 L42 12 L50 16" fill="none" stroke="#8b7f59" stroke-opacity="0.55"/>
    <path d="M19 22 L32 17 L45 22" fill="none" stroke="#8b7f59" stroke-opacity="0.35"/>
  </g>
  <g id="temple_stone_left" transform="translate(64,192)">
    <polygon points="1,1 31,16 31,31 1,16" fill="#a89868" stroke="#675b3f"/>
    <path d="M7 6 L7 22" fill="none" stroke="#d6c99c" stroke-opacity="0.3"/>
    <path d="M16 10 L16 26" fill="none" stroke="#d6c99c" stroke-opacity="0.3"/>
    <path d="M25 14 L25 30" fill="none" stroke="#d6c99c" stroke-opacity="0.3"/>
  </g>
  <g id="temple_stone_right" transform="translate(96,192)">
    <polygon points="1,16 31,1 31,16 1,31" fill="#95865c" stroke="#5a5138"/>
    <path d="M8 13 L8 29" fill="none" stroke="#d6c99c" stroke-opacity="0.3"/>
    <path d="M17 8 L17 24" fill="none" stroke="#d6c99c" stroke-opacity="0.3"/>
    <path d="M26 4 L26 20" fill="none" stroke="#d6c99c" stroke-opacity="0.3"/>
  </g>

  <!-- lava -->
  <g id="lava_top" transform="translate(0,224)">
    <polygon points="32,1 63,16 32,31 1,16" fill="#c03b16" stroke="#5e170d"/>
    <polygon points="32,6 55,16 32,26 9,16" fill="#ffb12f" fill-opacity="0.65"/>
    <path d="M10 16 C18 10,24 22,32 13 C39 7,48 22,54 16" fill="none" stroke="#ffd46a" stroke-opacity="0.6"/>
    <path d="M18 22 C24 17,30 24,36 17 C40 13,46 21,50 18" fill="none" stroke="#ff7b20" stroke-opacity="0.55"/>
  </g>
  <g id="lava_left" transform="translate(64,224)">
    <polygon points="1,1 31,16 31,31 1,16" fill="#4f2d21" stroke="#26120d"/>
    <path d="M1 6 L31 21" fill="none" stroke="#7a4030" stroke-opacity="0.35"/>
    <path d="M7 11 L18 17" fill="none" stroke="#ff7b20" stroke-opacity="0.25"/>
  </g>
  <g id="lava_right" transform="translate(96,224)">
    <polygon points="1,16 31,1 31,16 1,31" fill="#40241a" stroke="#1b0e0a"/>
    <path d="M1 20 L31 5" fill="none" stroke="#70382a" stroke-opacity="0.35"/>
    <path d="M8 23 L19 17" fill="none" stroke="#ff7b20" stroke-opacity="0.25"/>
  </g>

  <!-- cracked -->
  <g id="cracked_top" transform="translate(0,256)">
    <polygon points="32,1 63,16 32,31 1,16" fill="#55514f" stroke="#2b2928"/>
    <polygon points="32,5 55,16 32,27 9,16" fill="#696462" fill-opacity="0.25"/>
    <path d="M14 10 L26 15 L22 20 L35 23 L31 28" fill="none" stroke="#25110b" stroke-opacity="0.75"/>
    <path d="M40 8 L35 15 L45 18 L39 24 L49 27" fill="none" stroke="#ff7b20" stroke-opacity="0.35"/>
  </g>
  <g id="cracked_left" transform="translate(64,256)">
    <polygon points="1,1 31,16 31,31 1,16" fill="#44403d" stroke="#211f1d"/>
    <path d="M5 9 L14 14 L11 20 L21 25" fill="none" stroke="#2c1811" stroke-opacity="0.55"/>
  </g>
  <g id="cracked_right" transform="translate(96,256)">
    <polygon points="1,16 31,1 31,16 1,31" fill="#3a3634" stroke="#1a1817"/>
    <path d="M9 18 L17 13 L15 21 L23 17" fill="none" stroke="#2c1811" stroke-opacity="0.55"/>
  </g>
</svg>
