<svg xmlns="http://www.w3.org/2000/svg" width="48" height="56" viewBox="0 0 48 56">
  <polygon points="18,8 28,8 31,11 21,11" fill="#f3eed9"/>
  <polygon points="16,11 27,11 27,20 16,20" fill="#ede6d0"/>
  <polygon points="27,11 31,11 31,20 27,20" fill="#cfc6b0"/>
  <rect x="20" y="20" width="6" height="14" fill="#d9d1bc"/>
  <rect x="16" y="22" width="14" height="3" fill="#d9d1bc"/>
  <rect x="16" y="27" width="14" height="3" fill="#d9d1bc"/>
  <rect x="12" y="22" width="4" height="13" fill="#cfc6b0"/>
  <rect x="30" y="22" width="4" height="13" fill="#cfc6b0"/>
  <rect x="20" y="34" width="4" height="13" fill="#cfc6b0"/>
  <rect x="25" y="34" width="4" height="13" fill="#cfc6b0"/>
  <rect x="18" y="47" width="6" height="5" fill="#8a6d55"/>
  <rect x="24" y="47" width="6" height="5" fill="#8a6d55"/>
  <polygon points="31,21 34,19 42,30 39,32" fill="#d4dbea"/>
  <rect x="29" y="20" width="5" height="3" fill="#7a5738"/>
  <rect x="19" y="14" width="2" height="2" fill="#474747"/>
  <rect x="24" y="14" width="2" height="2" fill="#474747"/>
</svg>
