<svg xmlns="http://www.w3.org/2000/svg" width="48" height="56" viewBox="0 0 48 56">
  <polygon points="16,8 30,8 33,12 20,12" fill="#8aa864"/>
  <polygon points="14,12 28,12 28,22 14,22" fill="#b0c784"/>
  <polygon points="28,12 33,12 33,22 28,22" fill="#6e8d53"/>
  <polygon points="13,22 29,20 35,25 34,36 12,36" fill="#6b8d55"/>
  <polygon points="35,25 39,28 39,38 34,36" fill="#4e6740"/>
  <polygon points="8,24 13,22 12,39 7,41" fill="#759862"/>
  <polygon points="29,22 34,23 37,40 31,39" fill="#5d784a"/>
  <rect x="14" y="36" width="8" height="11" fill="#4b5a3e"/>
  <rect x="26" y="35" width="8" height="13" fill="#4b5a3e"/>
  <rect x="13" y="47" width="10" height="5" fill="#70553a"/>
  <rect x="25" y="48" width="10" height="5" fill="#70553a"/>
  <rect x="17" y="15" width="5" height="4" fill="#4b5a3e"/>
  <rect x="24" y="28" width="7" height="5" fill="#70553a"/>
  <rect x="20" y="15" width="10" height="2" fill="#2a2a2a" opacity="0.2"/>
</svg>
